<svg xmlns="http://www.w3.org/2000/svg" width="560.3067" height="250" viewBox="0 0 560.3067 250">
	<defs>
		<style>
			.a{fill:#e02aa0;}.b{fill:#eb5564;}.c{fill:#f67f29;}.d{fill:#f06a47;}.e{fill:#bd00cc;}.f{fill:#e64082;}.g{fill:#ce17bd;}.h{fill:#9659f1;}.i{fill:#6596f8;}.j{fill:#866ef4;}.k{fill:#a745ef;}.l{fill:#7682f6;}.m{fill:#44bffd;}.n{fill:#55abfb;}
		</style>
	</defs>
	<title>
		Logo
	</title>
	<polygon class="a" points="416.649 20.68 380.807 41.321 380.807 41.402 416.65 62.122 416.649 20.68" />
	<polygon class="b" points="416.65 62.122 380.807 41.402 380.806 82.767 416.65 62.123 416.65 62.122" />
	<polygon class="c" points="416.652 62.123 416.651 62.122 416.65 62.123 416.65 103.568 452.565 82.884 416.652 62.123" />
	<polygon class="d" points="380.806 82.767 380.806 82.847 416.65 103.568 416.65 62.123 380.806 82.767" />
	<polygon class="e" points="452.565 0 416.649 20.68 452.565 41.442 452.565 0" />
	<polygon class="f" points="380.737 41.361 344.823 62.046 380.735 82.806 380.737 82.807 380.806 82.767 380.807 41.402 380.737 41.361" />
	<polygon class="g" points="416.651 62.122 416.652 62.123 452.565 41.442 416.649 20.68 416.65 62.122 416.651 62.122" />
	<polygon class="h" points="488.479 82.807 488.477 82.806 452.565 103.488 488.48 124.25 488.48 82.808 488.479 82.807" />
	<polygon class="i" points="488.48 82.807 488.48 82.808 524.322 103.528 524.324 62.162 488.48 82.807" />
	<polygon class="j" points="488.48 124.25 524.322 103.609 524.322 103.528 488.48 82.808 488.48 124.25" />
	<polygon class="k" points="452.565 144.93 488.48 124.25 452.565 103.488 452.565 144.93" />
	<polygon class="l" points="524.394 62.123 524.393 62.122 524.324 62.162 524.322 103.528 524.393 103.568 560.307 82.884 524.394 62.123" />
	<polygon class="m" points="488.48 82.807 488.479 41.361 452.565 62.046 488.477 82.806 488.479 82.807 488.48 82.807" />
	<polygon class="n" points="524.324 62.162 524.324 62.083 488.479 41.361 488.48 82.807 524.324 62.162" />
	<path d="M13.7431,180.0729c8.69,9.0945,18.1889,13.54,28.092,13.54,7.2758,0,12.7331-2.8286,12.7331-8.2859,0-4.243-2.83-5.86-10.3074-9.0944L33.5492,171.787C15.1574,164.31,6.2658,156.0239,6.2658,141.2693c0-18.7946,14.956-29.9119,36.7822-29.9119,14.9559,0,26.8791,5.0543,35.9749,14.9573L65.28,143.0893c-6.67-6.2658-14.1474-9.5-22.4333-9.5-6.67,0-10.7116,2.4257-10.7116,7.0744,0,3.84,2.6272,5.6573,10.5088,8.8916l9.7016,4.0429c19.4018,7.883,28.0919,15.7632,28.0919,30.5177,0,9.9031-3.6386,17.7833-11.1159,23.4434q-10.9137,8.49-27.89,8.4887c-17.5818,0-32.3363-7.2772-41.4308-19.4032Z" />
	<path d="M192.5941,213.6221h-27.082v-58.204c0-11.52-7.4773-19.4032-18.5932-19.4032s-18.9975,7.883-18.9975,19.4032v58.204H100.6366V62.045h27.2848v60.024c6.6687-6.6687,16.37-10.7116,27.4849-10.7116,22.6361,0,37.1878,15.966,37.1878,40.2206Z" />
	<path d="M231.9911,60.2277c9.7,0,17.5832,7.2745,17.5832,16.9747,0,9.5-7.883,16.7746-17.5832,16.7746s-17.38-7.2745-17.38-16.7746C214.6107,67.5022,222.29,60.2277,231.9911,60.2277ZM218.4494,113.58h27.2848V213.6221H218.4494Z" />
	<path d="M272.4064,62.045h27.2847V213.6221H272.4064Z" />
	<path d="M383.5573,216.0479c-12.126,0-22.6347-4.2458-29.9106-12.126V250H326.3619V113.58h25.0619v12.5316c6.6687-9.5,18.39-14.7545,32.1335-14.7545,27.89,0,48.5052,22.2318,48.5052,52.1438S411.4478,216.0479,383.5573,216.0479Zm-5.0529-80.033c-13.7431,0-25.262,9.5-25.262,27.4863,0,17.786,11.3174,27.6863,25.262,27.6863,14.5517,0,25.869-11.1146,25.869-27.4835C404.3734,146.9294,393.2589,136.0149,378.5044,136.0149Z" />
</svg>
